<?xml version="1.0" encoding="utf-8"?>
<!-- Generator: Adobe Illustrator 12.0.0, SVG Export Plug-In . SVG Version: 6.00 Build 51448)  -->
<!DOCTYPE svg PUBLIC "-//W3C//DTD SVG 1.1//EN" "http://www.w3.org/Graphics/SVG/1.1/DTD/svg11.dtd" [
	<!ENTITY ns_svg "http://www.w3.org/2000/svg">
	<!ENTITY ns_xlink "http://www.w3.org/1999/xlink">
]>
<svg  version="1.1" xmlns="&ns_svg;" xmlns:xlink="&ns_xlink;" width="479.895" height="148.032" viewBox="0 0 479.895 148.032"
	 overflow="visible" enable-background="new 0 0 479.895 148.032" xml:space="preserve">
<g id="drummond">
	<path fill="#866658" d="M59.235,95.415h11.097v6.496c1.19-2.549,2.774-4.484,4.749-5.809c1.976-1.32,4.138-1.982,6.491-1.982
		c1.663,0,3.402,0.441,5.221,1.321L82.8,106.534c-1.504-0.754-2.741-1.131-3.712-1.131c-1.974,0-3.642,1.225-5.004,3.676
		c-1.362,2.451-2.043,7.258-2.043,14.422L72.088,126v20.738H59.235V95.415z"/>
	<path fill="#866658" d="M89.214,95.415h13.039v24.733c0,4.814,0.333,8.157,1,10.031c0.666,1.873,1.736,3.329,3.213,4.366
		c1.475,1.039,3.292,1.558,5.451,1.558c2.157,0,3.989-0.51,5.498-1.533c1.507-1.023,2.625-2.525,3.356-4.51
		c0.54-1.478,0.809-4.642,0.809-9.487V95.415h12.854v21.735c0,8.959-0.709,15.088-2.128,18.388c-1.736,4.024-4.29,7.112-7.664,9.265
		c-3.374,2.153-7.662,3.229-12.866,3.229c-5.645,0-10.209-1.258-13.693-3.771c-3.485-2.513-5.936-6.02-7.354-10.514
		c-1.01-3.112-1.514-8.77-1.514-16.973V95.415z"/>
	<path fill="#866658" d="M143.111,95.415h12.854v5.937c2.205-2.426,4.656-4.238,7.35-5.436c2.694-1.196,5.632-1.796,8.816-1.796
		c3.213,0,6.111,0.789,8.695,2.366c2.583,1.578,4.664,3.881,6.241,6.909c2.047-3.028,4.56-5.331,7.538-6.909
		c2.977-1.577,6.23-2.366,9.76-2.366c3.656,0,6.869,0.85,9.642,2.546c2.773,1.698,4.766,3.915,5.979,6.648
		c1.213,2.734,1.82,7.182,1.82,13.344v30.08h-12.854v-25.995c0-5.807-0.731-9.737-2.193-11.794
		c-1.462-2.057-3.654-3.084-6.579-3.084c-2.225,0-4.219,0.627-5.982,1.884c-1.765,1.255-3.075,2.988-3.933,5.202
		s-1.287,5.769-1.287,10.666v23.121h-12.854v-24.817c0-4.583-0.341-7.901-1.023-9.958c-0.682-2.056-1.704-3.586-3.066-4.591
		c-1.364-1.005-3.011-1.507-4.945-1.507c-2.155,0-4.114,0.635-5.872,1.906c-1.759,1.271-3.074,3.054-3.946,5.344
		c-0.873,2.292-1.308,5.903-1.308,10.832v22.791h-12.854V95.415z"/>
	<path fill="#866658" d="M230.011,95.415h12.854v5.937c2.204-2.426,4.655-4.238,7.349-5.436c2.693-1.196,5.634-1.796,8.818-1.796
		c3.213,0,6.111,0.789,8.694,2.366c2.583,1.578,4.664,3.881,6.24,6.909c2.048-3.028,4.56-5.331,7.538-6.909
		c2.978-1.577,6.231-2.366,9.76-2.366c3.656,0,6.869,0.85,9.643,2.546c2.771,1.698,4.767,3.915,5.979,6.648
		c1.213,2.734,1.82,7.182,1.82,13.344v30.08h-12.854v-25.995c0-5.807-0.731-9.737-2.193-11.794c-1.461-2.057-3.655-3.084-6.58-3.084
		c-2.226,0-4.219,0.627-5.982,1.884c-1.763,1.255-3.074,2.988-3.933,5.202c-0.857,2.214-1.286,5.769-1.286,10.666v23.121h-12.854
		v-24.817c0-4.583-0.342-7.901-1.022-9.958c-0.683-2.056-1.706-3.586-3.067-4.591c-1.363-1.005-3.012-1.507-4.944-1.507
		c-2.155,0-4.114,0.635-5.872,1.906c-1.761,1.271-3.075,3.054-3.947,5.344c-0.872,2.292-1.307,5.903-1.307,10.832v22.791h-12.854
		V95.415z"/>
	<path fill="#866658" d="M341.201,94.12c4.842,0,9.393,1.212,13.654,3.629c4.262,2.419,7.587,5.703,9.977,9.85
		c2.391,4.147,3.585,8.625,3.585,13.43c0,4.84-1.203,9.363-3.608,13.573c-2.406,4.211-5.686,7.501-9.836,9.874
		c-4.149,2.371-8.727,3.557-13.726,3.557c-7.357,0-13.639-2.614-18.844-7.846c-5.204-5.23-7.806-11.586-7.806-19.063
		c0-8.012,2.939-14.688,8.82-20.03C328.573,96.444,334.501,94.12,341.201,94.12z M341.39,106.234c-3.987,0-7.308,1.393-9.96,4.176
		c-2.653,2.783-3.979,6.347-3.979,10.688c0,4.467,1.311,8.084,3.931,10.853c2.622,2.769,5.943,4.152,9.963,4.152
		c4.018,0,7.361-1.398,10.03-4.199c2.668-2.8,4.004-6.402,4.004-10.806c0-4.404-1.313-7.983-3.933-10.735
		C348.824,107.61,345.472,106.234,341.39,106.234z"/>
	<path fill="#866658" d="M375.042,95.415h12.854v5.247c2.928-2.447,5.581-4.149,7.959-5.105c2.38-0.956,4.813-1.437,7.301-1.437
		c5.101,0,9.431,1.776,12.989,5.328c2.992,3.018,4.488,7.48,4.488,13.391v33.899h-12.761V124.25c0-6.128-0.276-10.199-0.827-12.21
		c-0.553-2.012-1.511-3.544-2.882-4.597c-1.369-1.051-3.062-1.578-5.075-1.578c-2.612,0-4.855,0.872-6.729,2.617
		s-3.173,4.156-3.896,7.235c-0.38,1.604-0.568,5.076-0.568,10.418v20.603h-12.854V95.415z"/>
</g>
<g id="Layer_2">
	<path fill="#866658" d="M479.226,81.778c-1.601,1.631-3.535,2.448-5.801,2.448c-2.268,0-4.205-0.817-5.806-2.448
		c-0.22-0.225-0.388-0.472-0.578-0.709v19.948c-2.294-2.299-4.79-4.022-7.49-5.173c-2.701-1.149-5.59-1.725-8.667-1.725
		c-6.688,0-12.374,2.529-17.052,7.587c-4.679,5.059-7.018,11.546-7.018,19.463c0,7.635,2.417,14.021,7.254,19.158
		c4.836,5.138,10.565,7.704,17.193,7.704c2.951,0,5.691-0.524,8.22-1.57c2.526-1.047,5.047-2.76,7.56-5.137v5.413h12.854V80.96
		C479.681,81.236,479.48,81.52,479.226,81.778z M463.606,132.048c-2.659,2.827-6.008,4.24-10.046,4.24
		c-3.909,0-7.202-1.436-9.879-4.312c-2.676-2.875-4.013-6.539-4.013-10.996c0-4.421,1.314-8.046,3.942-10.875
		c2.628-2.826,5.929-4.24,9.904-4.24c4.067,0,7.432,1.39,10.091,4.169c2.659,2.78,3.991,6.414,3.991,10.9
		C467.597,125.515,466.265,129.221,463.606,132.048z"/>
	<g>
		<path fill="#866658" d="M49.274,80.74c-2.794,1.373-5.814,2.344-9.048,2.939v17.338c-2.293-2.299-4.79-4.022-7.49-5.173
			c-2.701-1.149-5.589-1.725-8.667-1.725c-6.688,0-12.373,2.529-17.052,7.587C2.339,106.766,0,113.253,0,121.17
			c0,7.635,2.418,14.021,7.253,19.158c4.837,5.138,10.567,7.704,17.193,7.704c2.953,0,5.691-0.524,8.221-1.57
			c2.527-1.047,5.046-2.76,7.56-5.137v5.413H53.08V78.525C51.884,79.336,50.621,80.078,49.274,80.74z M36.792,132.048
			c-2.66,2.827-6.008,4.24-10.045,4.24c-3.912,0-7.205-1.436-9.88-4.312c-2.676-2.875-4.013-6.539-4.013-10.996
			c0-4.421,1.314-8.046,3.942-10.875c2.628-2.826,5.93-4.24,9.905-4.24c4.068,0,7.432,1.39,10.092,4.169
			c2.659,2.78,3.989,6.414,3.989,10.9C40.781,125.515,39.451,129.221,36.792,132.048z"/>
		<path fill="#866658" d="M40.227,75.625v0.51c0.615-0.159,1.233-0.309,1.829-0.51H40.227z"/>
	</g>
</g>
<g id="cortney_d.">
	<path fill="#866658" d="M58.384,33.493l-5.774,3.589c-5-6.595-11.823-9.894-20.468-9.894c-6.912,0-12.648,2.219-17.215,6.655
		c-4.565,4.437-6.848,9.826-6.848,16.169c0,4.126,1.05,8.007,3.151,11.645c2.101,3.641,4.982,6.465,8.646,8.476
		c3.663,2.012,7.769,3.014,12.318,3.014c8.333,0,15.139-3.297,20.417-9.895l5.774,3.798c-2.707,4.074-6.341,7.236-10.903,9.481
		c-4.563,2.242-9.758,3.365-15.587,3.365c-8.952,0-16.376-2.842-22.274-8.536c-5.898-5.69-8.847-12.614-8.847-20.771
		c0-5.481,1.378-10.575,4.137-15.279c2.759-4.701,6.548-8.372,11.372-11.01c4.823-2.637,10.218-3.957,16.186-3.957
		c3.747,0,7.363,0.571,10.851,1.71c3.487,1.138,6.445,2.623,8.874,4.452C54.618,28.335,56.684,30.665,58.384,33.493z"/>
	<path fill="#866658" d="M90.699,20.344c8.712,0,15.935,3.159,21.661,9.475c5.208,5.762,7.812,12.581,7.812,20.458
		c0,7.912-2.751,14.828-8.253,20.746c-5.502,5.918-12.577,8.874-21.22,8.874c-8.68,0-15.771-2.955-21.273-8.874
		c-5.502-5.918-8.253-12.833-8.253-20.746c0-7.843,2.604-14.644,7.811-20.406C74.711,23.521,81.949,20.344,90.699,20.344z
		 M90.672,27.465c-6.022,0-11.195,2.24-15.521,6.716c-4.326,4.477-6.488,9.891-6.488,16.241c0,4.094,0.986,7.911,2.958,11.451
		c1.972,3.541,4.637,6.274,7.995,8.202c3.356,1.924,7.042,2.886,11.056,2.886s7.699-0.962,11.057-2.886
		c3.357-1.927,6.021-4.661,7.993-8.202c1.972-3.54,2.96-7.357,2.96-11.451c0-6.351-2.172-11.765-6.516-16.241
		C101.822,29.705,96.659,27.465,90.672,27.465z"/>
	<path fill="#866658" d="M126.666,21.824h7.398v8.271c2.229-3.259,4.58-5.699,7.054-7.32c2.474-1.62,5.051-2.431,7.734-2.431
		c2.02,0,4.18,0.642,6.481,1.925l-3.797,6.184c-1.534-0.658-2.824-0.988-3.871-0.988c-2.442,0-4.796,0.998-7.063,2.989
		c-2.268,1.994-3.994,5.087-5.179,9.281c-0.907,3.225-1.359,9.741-1.359,19.549v19.133h-7.398V21.824z"/>
	<path fill="#866658" d="M167.771,0.833h7.306v20.992h11.56v6.288h-11.56v50.306h-7.306V28.112h-9.895v-6.288h9.895V0.833z"/>
	<path fill="#866658" d="M193.321,21.824h7.306v10.144c2.913-3.884,6.136-6.791,9.673-8.725c3.537-1.932,7.385-2.899,11.547-2.899
		c4.229,0,7.981,1.077,11.258,3.227c3.278,2.151,5.697,5.048,7.258,8.691s2.341,9.314,2.341,17.016v29.14h-7.306V51.431
		c0-6.517-0.272-10.867-0.816-13.052c-0.849-3.743-2.469-6.559-4.859-8.449c-2.39-1.89-5.507-2.835-9.353-2.835
		c-4.399,0-8.338,1.457-11.819,4.368c-3.482,2.913-5.777,6.518-6.885,10.815c-0.694,2.809-1.039,7.94-1.039,15.394v20.746h-7.306
		V21.824z"/>
	<path fill="#866658" d="M301.803,59.553l6.138,3.226c-2.018,3.979-4.351,7.189-6.995,9.634c-2.644,2.442-5.618,4.3-8.925,5.574
		c-3.306,1.274-7.047,1.909-11.222,1.909c-9.258,0-16.497-3.024-21.715-9.081c-5.221-6.058-7.83-12.904-7.83-20.538
		c0-7.184,2.208-13.586,6.626-19.208c5.6-7.15,13.095-10.725,22.486-10.725c9.667,0,17.39,3.649,23.163,10.944
		c4.104,5.152,6.192,11.585,6.261,19.295h-51.046c0.138,6.6,2.248,12.012,6.323,16.231c4.074,4.222,9.108,6.331,15.102,6.331
		c2.891,0,5.704-0.502,8.438-1.508c2.733-1.009,5.062-2.344,6.977-4.011C297.5,65.96,299.573,63.27,301.803,59.553z M301.746,44.295
		c-0.974-3.873-2.393-6.967-4.253-9.285c-1.862-2.318-4.325-4.185-7.385-5.604c-3.063-1.417-6.28-2.127-9.654-2.127
		c-5.567,0-10.352,1.781-14.353,5.343c-2.924,2.595-5.133,6.485-6.628,11.672H301.746z"/>
	<path fill="#866658" d="M459.555,0v78.418h-7.306V68.69c-3.044,3.711-6.458,6.508-10.243,8.386
		c-3.786,1.882-7.927,2.82-12.421,2.82c-7.985,0-14.806-2.903-20.458-8.718c-5.653-5.812-8.479-12.882-8.479-21.213
		c0-8.155,2.852-15.131,8.557-20.927s12.566-8.694,20.588-8.694c4.633,0,8.825,0.989,12.576,2.965
		c3.75,1.977,7.044,4.942,9.88,8.896V0H459.555z M430.36,27.373c-4.047,0-7.781,0.998-11.203,2.988
		c-3.424,1.991-6.146,4.789-8.168,8.391c-2.024,3.604-3.034,7.414-3.034,11.431c0,3.985,1.018,7.793,3.059,11.432
		c2.04,3.638,4.779,6.47,8.221,8.497c3.44,2.025,7.132,3.036,11.073,3.036c3.977,0,7.745-1.002,11.307-3.011
		c3.561-2.008,6.301-4.728,8.22-8.158s2.878-7.292,2.878-11.587c0-6.546-2.153-12.02-6.457-16.419
		C441.95,29.574,436.652,27.373,430.36,27.373z"/>
	<path fill="#866658" d="M473.425,66.951c1.762,0,3.267,0.627,4.512,1.881c1.246,1.251,1.868,2.783,1.868,4.592
		c0,1.776-0.622,3.3-1.868,4.567c-1.245,1.27-2.75,1.904-4.512,1.904c-1.765,0-3.271-0.635-4.515-1.904
		c-1.245-1.268-1.866-2.791-1.866-4.567c0-1.809,0.621-3.341,1.866-4.592C470.155,67.578,471.661,66.951,473.425,66.951z"/>
</g>
<g id="Layer_4">
	<path fill="#866658" d="M321.227,97.667c0.238-0.23,0.45-0.474,0.699-0.698c3.098-2.795,6.463-4.783,10.074-6.026l30.18-68.933
		h-7.752l-18.923,43.458L315.942,22.01h-7.581l23.304,51.999L321.227,97.667z"/>
</g>
</svg>
